# xmcd
#
# Track frame offsets:
#	150
#	17005
#	27593
#	43293
#	64057
#	80335
#	98709
#	111850
#	128876
#	145009
#	160158
#	172464
#	189805
#	206096
#	223718
#	241796
#	254616
#	268946
#
# Disc length: 3784 seconds
#
# Revision: 2
# Processed by: cddbd v1.5.2PL0 Copyright (c) Steve Scherf et al.
# Submitted via: audiograbber 1.83.01
#
DISCID=0b0ec612
DTITLE=Various Artist - CDX 054
DYEAR=1993
DGENRE=Country
TTITLE0=Corbin Hanner - Any Road
TTITLE1=The Cactus Brothers - Crazy Heart
TTITLE2=Hank Williams Jr. - Diamond Mine
TTITLE3=The Rankin Family - Fare Thee Well Love
TTITLE4=Larry Boone - Get In Line
TTITLE5=Steven Curtis Chapman - Go There With You [Edit Version]
TTITLE6=Marty Stuart - Hey Baby
TTITLE7=Nitty Gritty Dirt Band - Little Angel
TTITLE8=Cimmaron - Not Through Breakin' My Heart
TTITLE9=Dixiana - Now Your Talkin'
TTITLE10=Brian James - One Single Night
TTITLE11=Tanya Tucker - Tell Me About It
TTITLE12=Palomino Road - The Best That You Can Do
TTITLE13=Ronny Cox - The Cowboy Rides
TTITLE14=Mary Chapin Carpenter - The Hard Way
TTITLE15=Debra Burns - You Put Out An Old Flame Last
TTITLE16=Celinda Pink - Pack Your Lies And Go
TTITLE17=Hank Williams Jr. - S.O.B., I'm Tired
EXTD=
EXTT0=
EXTT1=
EXTT2=
EXTT3=
EXTT4=
EXTT5=
EXTT6=
EXTT7=
EXTT8=
EXTT9=
EXTT10=
EXTT11=
EXTT12=
EXTT13=
EXTT14=
EXTT15=
EXTT16=
EXTT17=
PLAYORDER=
